<?xml version="1.0" encoding="utf-8"?>
<!-- Generator: Adobe Illustrator 21.0.0, SVG Export Plug-In . SVG Version: 6.00 Build 0)  -->
<svg version="1.1" id="Layer_1" xmlns="http://www.w3.org/2000/svg" xmlns:xlink="http://www.w3.org/1999/xlink" x="0px" y="0px"
	 viewBox="0 0 64 64" style="enable-background:new 0 0 64 64;" xml:space="preserve">
<style type="text/css">
	.st0{fill:none;stroke:#263238;stroke-linecap:round;stroke-linejoin:round;stroke-miterlimit:10;}
	.st1{fill:#FFD740;stroke:#263238;stroke-linecap:round;stroke-linejoin:round;stroke-miterlimit:10;}
	.st2{fill:#40C4FF;stroke:#263238;stroke-linecap:round;stroke-linejoin:round;stroke-miterlimit:10;}
	.st3{fill:#FFFFFF;stroke:#263238;stroke-linecap:round;stroke-linejoin:round;stroke-miterlimit:10;}
	.st4{fill:#FF5252;stroke:#263238;stroke-linecap:round;stroke-linejoin:round;stroke-miterlimit:10;}
	.st5{fill:#FF5252;}
	.st6{fill:#4DB6AC;stroke:#263238;stroke-linecap:round;stroke-linejoin:round;stroke-miterlimit:10;}
	.st7{fill:#FFD740;}
	.st8{fill:#40C4FF;}
	.st9{fill:#4DB6AC;}
	.st10{fill:#FFFFFF;}
	.st11{fill:#263238;stroke:#263238;stroke-linecap:round;stroke-linejoin:round;stroke-miterlimit:10;}
	.st12{fill:#4FC3F7;}
	.st13{fill:#E0E0E0;stroke:#263238;stroke-linecap:round;stroke-linejoin:round;stroke-miterlimit:10;}
</style>
<g id="Communication">
	<g>
		<path class="st0" d="M61,63.1H3c-1.1,0-2-0.9-2-2v0c0-1.1,0.9-2,2-2h58c1.1,0,2,0.9,2,2v0C63,62.3,62.1,63.1,61,63.1z"/>
		<g>
			<line class="st0" x1="45.6" y1="12.9" x2="39.9" y2="17.2"/>
			<line class="st0" x1="47.7" y1="15.1" x2="43.5" y2="20.7"/>
			<ellipse transform="matrix(0.7071 -0.7071 0.7071 0.7071 5.8854 37.9564)" class="st4" cx="48.8" cy="11.9" rx="3" ry="3"/>
			<path class="st2" d="M24.7,35.9c9.1,9.1,23.8,9.4,33.2,0.7c0.4-0.4,0.4-1,0-1.4L25.4,2.7c-0.4-0.4-1.1-0.4-1.4,0
				C15.4,12.1,15.6,26.8,24.7,35.9z"/>
			<path class="st2" d="M54.3,35.8c-3.6,2.7-8,4.2-12.6,4.2c-3.2,0-6.2-0.7-9-2"/>
			<g>
				<path class="st0" d="M48.8,0.9c6.1,0,11,4.9,11,11"/>
				<path class="st0" d="M48.8,4.9c3.9,0,7,3.1,7,7"/>
			</g>
		</g>
		<line class="st0" x1="11" y1="46.1" x2="17.6" y2="39.5"/>
		<line class="st0" x1="21.1" y1="43.1" x2="18" y2="46.1"/>
		<ellipse transform="matrix(0.7071 -0.7071 0.7071 0.7071 -18.1563 27.998)" class="st2" cx="24.7" cy="35.9" rx="6" ry="6"/>
		<ellipse transform="matrix(0.7071 -0.7071 0.7071 0.7071 -18.1563 27.998)" class="st3" cx="24.7" cy="35.9" rx="6" ry="6"/>
		<ellipse transform="matrix(0.7071 -0.7071 0.7071 0.7071 -18.1563 27.998)" class="st2" cx="24.7" cy="35.9" rx="3" ry="3"/>
		<path class="st0" d="M4.2,57.1v-4.9c0-2.3,1.9-4.1,4.1-4.1h9.7c2.3,0,4.1,1.9,4.1,4.1v4.9"/>
		<path class="st0" d="M18.1,51.1 M18.1,51.1c0.6,0,1.1,0.5,1.1,1.1v4.9"/>
		<g>
			<g>
				<line class="st0" x1="37" y1="53.1" x2="36" y2="53.1"/>
				<line class="st0" x1="47" y1="53.1" x2="39" y2="53.1"/>
			</g>
			<g>
				<line class="st0" x1="53" y1="51.1" x2="54" y2="51.1"/>
				<line class="st0" x1="43" y1="51.1" x2="51" y2="51.1"/>
			</g>
		</g>
	</g>
</g>
</svg>
