<?xml version="1.0" encoding="utf-8"?>
<!-- Generator: Adobe Illustrator 21.1.0, SVG Export Plug-In . SVG Version: 6.00 Build 0)  -->
<svg version="1.1" id="Icon_Set" xmlns="http://www.w3.org/2000/svg" xmlns:xlink="http://www.w3.org/1999/xlink" x="0px" y="0px"
	 viewBox="0 0 64 64" style="enable-background:new 0 0 64 64;" xml:space="preserve">
<style type="text/css">
	.st0{fill:#37474F;}
	.st1{fill:#EF5350;}
	.st2{fill:#FFCA28;}
	.st3{fill:#64B5F6;}
	.st4{fill:#FFFFFF;}
	.st5{fill:#FF7043;}
</style>
<g id="Download_Literature">
	<g>
		<g>
			<path class="st2" d="M38.425,8h-25.5c-1.381,0-2.5,1.119-2.5,2.5v44c0,1.381,1.119,2.5,2.5,2.5h28.258l-3.026-3.026
				c-0.861-0.859-1.117-2.143-0.651-3.268c0.466-1.126,1.554-1.854,2.772-1.854h2.585v-9.5c0-1.654,1.346-3,3-3h3.562V19L38.425,8z"
				/>
		</g>
	</g>
	<g>
		<g>
			<path class="st0" d="M40.683,56.5H12.925c-1.103,0-2-0.897-2-2v-33c0-0.276-0.224-0.5-0.5-0.5s-0.5,0.224-0.5,0.5v33
				c0,1.654,1.346,3,3,3h27.757c0.276,0,0.5-0.224,0.5-0.5S40.959,56.5,40.683,56.5z"/>
		</g>
	</g>
	<g>
		<g>
			<path class="st0" d="M10.425,15c-0.276,0-0.5,0.224-0.5,0.5v3c0,0.276,0.224,0.5,0.5,0.5s0.5-0.224,0.5-0.5v-3
				C10.925,15.224,10.702,15,10.425,15z"/>
		</g>
	</g>
	<g>
		<g>
			<path class="st0" d="M49.778,18.646l-11-11C38.685,7.553,38.558,7.5,38.425,7.5h-25.5c-1.654,0-3,1.346-3,3v2
				c0,0.276,0.224,0.5,0.5,0.5s0.5-0.224,0.5-0.5v-2c0-1.103,0.897-2,2-2h25.292l10.707,10.707v17.146c0,0.276,0.224,0.5,0.5,0.5
				s0.5-0.224,0.5-0.5V19C49.925,18.867,49.872,18.74,49.778,18.646z"/>
		</g>
	</g>
	<g>
		<g>
			<path class="st0" d="M40.925,1.5h-34c-1.654,0-3,1.346-3,3v44c0,1.654,1.346,3,3,3h1.5c0.276,0,0.5-0.224,0.5-0.5
				s-0.224-0.5-0.5-0.5h-1.5c-1.103,0-2-0.897-2-2v-44c0-1.103,0.897-2,2-2h34c1.103,0,2,0.897,2,2v5.672c0,0.276,0.224,0.5,0.5,0.5
				s0.5-0.224,0.5-0.5V4.5C43.925,2.846,42.579,1.5,40.925,1.5z"/>
		</g>
	</g>
	<g>
		<g>
			<path class="st4" d="M38.425,8v8.5c0,1.381,1.119,2.5,2.5,2.5h8.5L38.425,8z"/>
		</g>
	</g>
	<g>
		<g>
			<g>
				<g>
					<path class="st0" d="M49.778,18.646l-11-11c-0.144-0.143-0.358-0.185-0.545-0.108C38.047,7.615,37.925,7.798,37.925,8v8.5
						c0,1.654,1.346,3,3,3h8.5c0.202,0,0.385-0.122,0.462-0.309S49.921,18.789,49.778,18.646z M40.925,18.5c-1.103,0-2-0.897-2-2
						V9.207l9.293,9.293H40.925z"/>
				</g>
			</g>
		</g>
	</g>
	<g>
		<g>
			<path class="st0" d="M44.425,23.5h-29c-0.276,0-0.5,0.224-0.5,0.5s0.224,0.5,0.5,0.5h29c0.276,0,0.5-0.224,0.5-0.5
				S44.701,23.5,44.425,23.5z"/>
		</g>
	</g>
	<g>
		<g>
			<path class="st0" d="M44.425,28.5h-29c-0.276,0-0.5,0.224-0.5,0.5s0.224,0.5,0.5,0.5h29c0.276,0,0.5-0.224,0.5-0.5
				S44.701,28.5,44.425,28.5z"/>
		</g>
	</g>
	<g>
		<g>
			<path class="st0" d="M44.425,33.5h-29c-0.276,0-0.5,0.224-0.5,0.5s0.224,0.5,0.5,0.5h29c0.276,0,0.5-0.224,0.5-0.5
				S44.701,33.5,44.425,33.5z"/>
		</g>
	</g>
	<g>
		<g>
			<path class="st0" d="M34.425,38.5h-19c-0.276,0-0.5,0.224-0.5,0.5s0.224,0.5,0.5,0.5h19c0.276,0,0.5-0.224,0.5-0.5
				S34.701,38.5,34.425,38.5z"/>
		</g>
	</g>
	<g>
		<g>
			<path class="st0" d="M26.425,45.5h-11c-0.276,0-0.5,0.224-0.5,0.5s0.224,0.5,0.5,0.5h11c0.276,0,0.5-0.224,0.5-0.5
				S26.702,45.5,26.425,45.5z"/>
		</g>
	</g>
	<g>
		<g>
			<rect x="15.425" y="14" class="st3" width="13" height="4"/>
		</g>
	</g>
	<g>
		<g>
			<g>
				<g>
					<path class="st0" d="M28.425,13.5h-13c-0.276,0-0.5,0.224-0.5,0.5v4c0,0.276,0.224,0.5,0.5,0.5h13c0.276,0,0.5-0.224,0.5-0.5
						v-4C28.925,13.724,28.701,13.5,28.425,13.5z M27.925,17.5h-12v-3h12V17.5z"/>
				</g>
			</g>
		</g>
	</g>
	<g>
		<g>
			<path class="st3" d="M58.573,50.852h-4.586v-11.5c0-0.552-0.448-1-1-1h-7.124c-0.552,0-1,0.448-1,1v11.5h-4.586
				c-0.891,0-1.337,1.077-0.707,1.707l9.148,9.148c0.391,0.391,1.024,0.391,1.414,0l9.148-9.148
				C59.91,51.929,59.464,50.852,58.573,50.852z"/>
		</g>
	</g>
	<g>
		<g>
			<g>
				<g>
					<path class="st0" d="M59.959,51.278c-0.236-0.571-0.768-0.926-1.386-0.926h-4.086v-11c0-0.827-0.673-1.5-1.5-1.5h-7.124
						c-0.827,0-1.5,0.673-1.5,1.5v11h-4.086c-0.618,0-1.149,0.354-1.386,0.926s-0.112,1.197,0.325,1.635l9.147,9.147
						c0.283,0.283,0.66,0.439,1.061,0.439s0.777-0.156,1.061-0.439l9.148-9.147C60.071,52.476,60.195,51.85,59.959,51.278z
						 M58.927,52.206l-9.148,9.147c-0.195,0.195-0.512,0.195-0.707,0l-9.147-9.147c-0.219-0.219-0.139-0.473-0.108-0.545
						s0.152-0.309,0.462-0.309h4.586c0.276,0,0.5-0.224,0.5-0.5v-11.5c0-0.275,0.225-0.5,0.5-0.5h7.124c0.275,0,0.5,0.225,0.5,0.5
						v11.5c0,0.276,0.224,0.5,0.5,0.5h4.586c0.31,0,0.432,0.236,0.462,0.309S59.146,51.987,58.927,52.206z"/>
				</g>
			</g>
		</g>
	</g>
</g>
</svg>
