<?xml version="1.0" encoding="utf-8"?>
<!-- Generator: Adobe Illustrator 21.1.0, SVG Export Plug-In . SVG Version: 6.00 Build 0)  -->
<svg version="1.1" id="Layer_1" xmlns="http://www.w3.org/2000/svg" xmlns:xlink="http://www.w3.org/1999/xlink" x="0px" y="0px"
	 viewBox="0 0 64 64" style="enable-background:new 0 0 64 64;" xml:space="preserve">
<style type="text/css">
	.st0{fill:#263238;}
	.st1{fill:#FFD740;}
	.st2{fill:#40C4FF;}
	.st3{fill:#FF5252;}
	.st4{fill:#4DB6AC;}
	.st5{fill:#FFFFFF;}
	.st6{fill:#37474F;}
	.st7{fill:#4FC3F7;}
</style>
<g>
	<g>
		<path class="st0" d="M40,48H24c-0.276,0-0.5-0.224-0.5-0.5v-1.036c0-2.129-0.894-4.069-2.453-5.321
			c-4.76-3.824-7.157-9.747-6.412-15.844c0.967-7.913,7.423-14.3,15.351-15.187c5.06-0.567,9.917,0.977,13.677,4.34
			C47.373,17.77,49.5,22.526,49.5,27.5c0,5.305-2.369,10.264-6.5,13.605c-1.588,1.285-2.5,3.238-2.5,5.356V47.5
			C40.5,47.776,40.276,48,40,48z M24.5,47h15v-0.539c0-2.422,1.046-4.657,2.871-6.133C46.266,37.177,48.5,32.501,48.5,27.5
			c0-4.689-2.006-9.173-5.504-12.302c-3.546-3.171-8.125-4.622-12.899-4.091c-7.473,0.835-13.558,6.855-14.47,14.313
			c-0.702,5.751,1.558,11.337,6.046,14.943c1.797,1.443,2.827,3.667,2.827,6.101V47z"/>
	</g>
	<g>
		<path class="st0" d="M46,28c-0.276,0-0.5-0.224-0.5-0.5C45.5,20.056,39.444,14,32,14c-0.276,0-0.5-0.224-0.5-0.5S31.724,13,32,13
			c7.995,0,14.5,6.505,14.5,14.5C46.5,27.776,46.276,28,46,28z"/>
	</g>
	<g>
		<path class="st1" d="M32.5,62.5h-1c-4.142,0-7.5-3.358-7.5-7.5v-7.5h16V55C40,59.142,36.642,62.5,32.5,62.5z"/>
		<path class="st0" d="M32.5,63h-1c-4.411,0-8-3.589-8-8v-7.5c0-0.276,0.224-0.5,0.5-0.5h16c0.276,0,0.5,0.224,0.5,0.5V55
			C40.5,59.411,36.911,63,32.5,63z M24.5,48v7c0,3.86,3.14,7,7,7h1c3.86,0,7-3.14,7-7v-7H24.5z"/>
	</g>
	<g>
		<path class="st0" d="M40,52H24c-0.276,0-0.5-0.224-0.5-0.5S23.724,51,24,51h16c0.276,0,0.5,0.224,0.5,0.5S40.276,52,40,52z"/>
	</g>
	<g>
		<path class="st0" d="M40,56H24c-0.276,0-0.5-0.224-0.5-0.5S23.724,55,24,55h16c0.276,0,0.5,0.224,0.5,0.5S40.276,56,40,56z"/>
	</g>
	<g>
		<path class="st0" d="M32.125,8c-0.276,0-0.5-0.224-0.5-0.5v-6c0-0.276,0.224-0.5,0.5-0.5s0.5,0.224,0.5,0.5v6
			C32.625,7.776,32.401,8,32.125,8z"/>
	</g>
	<g>
		<path class="st0" d="M12,28H6c-0.276,0-0.5-0.224-0.5-0.5S5.724,27,6,27h6c0.276,0,0.5,0.224,0.5,0.5S12.276,28,12,28z"/>
	</g>
	<g>
		<path class="st0" d="M58,28h-6c-0.276,0-0.5-0.224-0.5-0.5S51.724,27,52,27h6c0.276,0,0.5,0.224,0.5,0.5S58.276,28,58,28z"/>
	</g>
	<g>
		<path class="st0" d="M13.615,46.384c-0.128,0-0.256-0.049-0.354-0.146c-0.195-0.195-0.195-0.512,0-0.707l4.243-4.243
			c0.195-0.195,0.512-0.195,0.707,0s0.195,0.512,0,0.707l-4.243,4.243C13.871,46.335,13.743,46.384,13.615,46.384z"/>
	</g>
	<g>
		<path class="st0" d="M46.142,13.857c-0.128,0-0.256-0.049-0.354-0.146c-0.195-0.195-0.195-0.512,0-0.707l4.243-4.243
			c0.195-0.195,0.512-0.195,0.707,0s0.195,0.512,0,0.707l-4.243,4.243C46.398,13.809,46.27,13.857,46.142,13.857z"/>
	</g>
	<g>
		<path class="st0" d="M50.385,46.384c-0.128,0-0.256-0.049-0.354-0.146l-4.243-4.243c-0.195-0.195-0.195-0.512,0-0.707
			s0.512-0.195,0.707,0l4.243,4.243c0.195,0.195,0.195,0.512,0,0.707C50.641,46.335,50.513,46.384,50.385,46.384z"/>
	</g>
	<g>
		<path class="st0" d="M17.858,13.857c-0.128,0-0.256-0.049-0.354-0.146l-4.243-4.243c-0.195-0.195-0.195-0.512,0-0.707
			s0.512-0.195,0.707,0l4.243,4.243c0.195,0.195,0.195,0.512,0,0.707C18.114,13.809,17.986,13.857,17.858,13.857z"/>
	</g>
	<g>
		<path class="st0" d="M61,28h-1c-0.276,0-0.5-0.224-0.5-0.5S59.724,27,60,27h1c0.276,0,0.5,0.224,0.5,0.5S61.276,28,61,28z"/>
	</g>
	<g>
		<path class="st0" d="M4,28H3c-0.276,0-0.5-0.224-0.5-0.5S2.724,27,3,27h1c0.276,0,0.5,0.224,0.5,0.5S4.276,28,4,28z"/>
	</g>
	<g>
		<polygon class="st1" points="27.5,40.5 31,29.5 25,29.5 36.5,18.5 33,29.5 39,29.5 		"/>
		<path class="st0" d="M27.5,41c-0.091,0-0.183-0.025-0.265-0.076c-0.194-0.121-0.281-0.358-0.212-0.576L30.316,30H25
			c-0.204,0-0.388-0.124-0.464-0.314c-0.076-0.189-0.029-0.406,0.118-0.547l11.5-11c0.166-0.157,0.417-0.184,0.61-0.063
			c0.194,0.121,0.281,0.358,0.212,0.576L33.684,29H39c0.204,0,0.388,0.124,0.464,0.314c0.076,0.189,0.029,0.406-0.118,0.547
			l-11.5,11C27.75,40.952,27.625,41,27.5,41z M26.246,29H31c0.16,0,0.31,0.076,0.404,0.205c0.094,0.128,0.121,0.294,0.073,0.446
			l-2.906,9.132L37.754,30H33c-0.16,0-0.31-0.076-0.404-0.205c-0.094-0.128-0.121-0.294-0.073-0.446l2.906-9.132L26.246,29z"/>
	</g>
</g>
</svg>
