<?xml version="1.0" encoding="utf-8"?>
<!-- Generator: Adobe Illustrator 22.0.0, SVG Export Plug-In . SVG Version: 6.00 Build 0)  -->
<svg version="1.1" id="Icon_Set" xmlns="http://www.w3.org/2000/svg" xmlns:xlink="http://www.w3.org/1999/xlink" x="0px" y="0px"
	 viewBox="0 0 64 64" style="enable-background:new 0 0 64 64;" xml:space="preserve">
<style type="text/css">
	.st0{fill:#263238;}
	.st1{fill:#FFD740;}
	.st2{fill:#FF5252;}
	.st3{fill:#40C4FF;}
	.st4{fill:#FFFFFF;}
	.st5{fill:#4DB6AC;}
	.st6{fill:#4FC3F7;}
</style>
<g>
	<g>
		<path class="st0" d="M58.75,33h-8c-0.276,0-0.5-0.224-0.5-0.5s0.224-0.5,0.5-0.5h8c0.276,0,0.5,0.224,0.5,0.5S59.026,33,58.75,33z
			"/>
	</g>
	<g>
		<path class="st0" d="M62.75,33h-2c-0.276,0-0.5-0.224-0.5-0.5s0.224-0.5,0.5-0.5h2c0.276,0,0.5,0.224,0.5,0.5S63.026,33,62.75,33z
			"/>
	</g>
	<g>
		<path class="st0" d="M13.25,33h-8c-0.276,0-0.5-0.224-0.5-0.5S4.974,32,5.25,32h8c0.276,0,0.5,0.224,0.5,0.5S13.526,33,13.25,33z"
			/>
	</g>
	<g>
		<path class="st0" d="M3.25,33h-2c-0.276,0-0.5-0.224-0.5-0.5S0.974,32,1.25,32h2c0.276,0,0.5,0.224,0.5,0.5S3.526,33,3.25,33z"/>
	</g>
	<g>
		<path class="st0" d="M32,29c-5.243,0-9.746-3.474-11.095-8.501C19.295,20.448,18,19.123,18,17.5s1.294-2.948,2.905-2.999
			C22.254,9.475,26.757,6,32,6c5.243,0,9.746,3.475,11.095,8.501C44.706,14.552,46,15.878,46,17.5c0,1.623-1.294,2.948-2.905,2.999
			C41.746,25.526,37.243,29,32,29z M21.216,19.481c0.24,0,0.508,0.149,0.561,0.378C22.878,24.652,27.083,28,32,28
			s9.122-3.348,10.224-8.142c0.057-0.249,0.294-0.416,0.545-0.384C42.905,19.492,42.951,19.5,43,19.5c1.103,0,2-0.897,2-2
			s-0.897-2-2-2c-0.05,0-0.098,0.008-0.146,0.015c-0.262,0.03-0.572-0.123-0.63-0.374C41.122,10.348,36.917,7,32,7
			s-9.122,3.348-10.224,8.141c-0.058,0.249-0.298,0.416-0.545,0.385C21.097,15.508,21.05,15.5,21,15.5c-1.103,0-2,0.897-2,2
			s0.897,2,2,2c0.048,0,0.095-0.008,0.142-0.014C21.166,19.482,21.191,19.481,21.216,19.481z"/>
	</g>
	<g>
		<path class="st0" d="M32,22.997c-1.409,0-2.817-0.536-3.889-1.608c-0.195-0.195-0.195-0.512,0-0.707s0.512-0.195,0.707,0
			c1.755,1.755,4.609,1.755,6.364,0c0.195-0.195,0.512-0.195,0.707,0s0.195,0.512,0,0.707C34.817,22.461,33.409,22.997,32,22.997z"
			/>
	</g>
	<g>
		<path class="st1" d="M36,29.5l3.422,1.466L45,29.25l-1.452-9.315C43.371,19.975,43.189,20,43,20c-0.099,0-0.193-0.018-0.289-0.029
			c-0.819,3.562-3.367,6.458-6.711,7.769V29.5z"/>
		<path class="st0" d="M39.422,31.466c-0.067,0-0.134-0.014-0.197-0.041l-3.422-1.466C35.619,29.881,35.5,29.7,35.5,29.5v-1.761
			c0-0.206,0.126-0.391,0.318-0.465c3.235-1.268,5.63-4.04,6.406-7.416c0.057-0.249,0.294-0.416,0.545-0.384
			C42.905,19.492,42.951,19.5,43,19.5c0.139,0,0.282-0.017,0.438-0.053c0.136-0.032,0.276-0.004,0.391,0.074
			c0.115,0.078,0.192,0.2,0.213,0.336l1.452,9.315c0.038,0.246-0.11,0.482-0.347,0.555l-5.578,1.716
			C39.521,31.459,39.471,31.466,39.422,31.466z M36.5,29.17l2.95,1.264l4.989-1.535l-1.31-8.402c-0.012,0-0.023,0.001-0.035,0.001
			c-0.916,3.399-3.345,6.191-6.595,7.576V29.17z"/>
	</g>
	<g>
		<path class="st1" d="M28,29.5v-1.76c-3.344-1.31-5.892-4.206-6.711-7.769C21.193,19.982,21.099,20,21,20
			c-0.189,0-0.371-0.025-0.548-0.065L19,29.25l5.578,1.716L28,29.5z"/>
		<path class="st0" d="M24.579,31.466c-0.049,0-0.099-0.007-0.147-0.022l-5.579-1.716c-0.237-0.073-0.385-0.31-0.347-0.555
			l1.452-9.315c0.021-0.137,0.099-0.259,0.213-0.336c0.114-0.078,0.256-0.106,0.391-0.074c0.21,0.047,0.399,0.063,0.58,0.039
			c0.262-0.036,0.577,0.121,0.635,0.373c0.776,3.375,3.171,6.147,6.406,7.415c0.192,0.075,0.318,0.26,0.318,0.465V29.5
			c0,0.2-0.119,0.381-0.303,0.459l-3.421,1.466C24.713,31.453,24.646,31.466,24.579,31.466z M19.561,28.899l4.99,1.535l2.95-1.264
			v-1.096c-3.25-1.385-5.679-4.177-6.595-7.576c-0.012,0-0.023-0.001-0.035-0.001L19.561,28.899z M28,29.5h0.01H28z"/>
	</g>
	<g>
		<path class="st1" d="M32,2.5L32,2.5c-6.075,0-11,4.925-11,11v3L27,8l0.245,0.312C30.563,12.534,35.636,15,41.006,15H43v-1.5
			C43,7.425,38.075,2.5,32,2.5z"/>
		<path class="st0" d="M21,17c-0.05,0-0.102-0.008-0.151-0.023C20.641,16.911,20.5,16.718,20.5,16.5v-3C20.5,7.159,25.659,2,32,2
			s11.5,5.159,11.5,11.5V15c0,0.276-0.224,0.5-0.5,0.5h-1.994c-5.468,0-10.549-2.425-13.983-6.666l-5.614,7.954
			C21.313,16.924,21.159,17,21,17z M32,3c-5.79,0-10.5,4.71-10.5,10.5v1.425l5.091-7.213c0.091-0.129,0.238-0.207,0.396-0.211
			c0.156,0,0.309,0.067,0.406,0.191l0.245,0.312c3.245,4.129,8.117,6.498,13.368,6.498H42.5v-1C42.5,7.71,37.79,3,32,3z"/>
	</g>
	<g>
		<path class="st0" d="M27.934,37.5c-0.042,0-0.083-0.005-0.124-0.016c-0.158-0.041-0.287-0.156-0.344-0.309l-2.416-6.437
			c-0.094-0.25,0.026-0.53,0.271-0.635l2.481-1.063c0.188-0.08,0.405-0.039,0.55,0.106l4,4c0.099,0.098,0.151,0.233,0.146,0.372
			c-0.005,0.139-0.068,0.27-0.173,0.36l-4.066,3.5C28.168,37.458,28.052,37.5,27.934,37.5z M26.154,30.835l1.996,5.319l3.115-2.681
			l-3.38-3.38L26.154,30.835z"/>
	</g>
	<g>
		<path class="st0" d="M36.056,37.5c-0.119,0-0.235-0.042-0.327-0.122l-4.056-3.5c-0.105-0.091-0.168-0.221-0.173-0.36
			c-0.005-0.139,0.048-0.274,0.146-0.372l4-4c0.145-0.145,0.363-0.186,0.55-0.106l2.481,1.063c0.246,0.105,0.365,0.385,0.271,0.636
			l-2.425,6.437c-0.058,0.153-0.186,0.268-0.344,0.308C36.139,37.495,36.097,37.5,36.056,37.5z M32.734,33.473l3.107,2.681
			l2.004-5.319l-1.73-0.742L32.734,33.473z"/>
	</g>
	<g>
		<path class="st0" d="M50,42c-0.276,0-0.5-0.224-0.5-0.5v-1.055c0-2.804-1.665-5.33-4.242-6.434l-9.455-4.052
			C35.619,29.881,35.5,29.7,35.5,29.5v-1.052c-2.274,0.732-4.726,0.732-7,0V29.5c0,0.2-0.119,0.381-0.303,0.459l-9.454,4.052
			c-2.577,1.104-4.243,3.63-4.243,6.434V41.5c0,0.276-0.224,0.5-0.5,0.5s-0.5-0.224-0.5-0.5v-1.055c0-3.205,1.903-6.091,4.849-7.353
			L27.5,29.17v-1.431c0-0.165,0.082-0.32,0.218-0.413c0.136-0.093,0.311-0.114,0.464-0.052c2.461,0.964,5.175,0.964,7.636,0
			c0.153-0.061,0.329-0.041,0.464,0.052c0.137,0.093,0.218,0.248,0.218,0.413v1.431l9.151,3.922
			c2.945,1.262,4.849,4.148,4.849,7.353V41.5C50.5,41.776,50.276,42,50,42z"/>
	</g>
	<g>
		<path class="st0" d="M53.5,62h-43c-1.654,0-3-1.346-3-3V46c0-1.654,1.346-3,3-3h6.223l2.356-3.77c0.183-0.292,0.665-0.292,0.848,0
			L22.282,43H53.5c1.654,0,3,1.346,3,3v13C56.5,60.654,55.154,62,53.5,62z M10.5,44c-1.103,0-2,0.897-2,2v13c0,1.103,0.897,2,2,2h43
			c1.103,0,2-0.897,2-2V46c0-1.103-0.897-2-2-2H22.005c-0.172,0-0.333-0.089-0.424-0.235l-2.079-3.326l-2.079,3.326
			C17.333,43.911,17.172,44,17,44H10.5z"/>
	</g>
	<g>
		<path class="st0" d="M23,49H13c-0.276,0-0.5-0.224-0.5-0.5S12.724,48,13,48h10c0.276,0,0.5,0.224,0.5,0.5S23.276,49,23,49z"/>
	</g>
	<g>
		<path class="st0" d="M38,54H13c-0.276,0-0.5-0.224-0.5-0.5S12.724,53,13,53h25c0.276,0,0.5,0.224,0.5,0.5S38.276,54,38,54z"/>
	</g>
	<g>
		<path class="st0" d="M33,57H13c-0.276,0-0.5-0.224-0.5-0.5S12.724,56,13,56h20c0.276,0,0.5,0.224,0.5,0.5S33.276,57,33,57z"/>
	</g>
	<g>
		<circle class="st5" cx="47" cy="52.5" r="4"/>
		<path class="st0" d="M47,57c-2.481,0-4.5-2.019-4.5-4.5S44.519,48,47,48s4.5,2.019,4.5,4.5S49.481,57,47,57z M47,49
			c-1.93,0-3.5,1.57-3.5,3.5S45.07,56,47,56s3.5-1.57,3.5-3.5S48.93,49,47,49z"/>
	</g>
	<g>
		<path class="st0" d="M59.5,10h-4C55.224,10,55,9.776,55,9.5S55.224,9,55.5,9h4C59.776,9,60,9.224,60,9.5S59.776,10,59.5,10z"/>
	</g>
	<g>
		<path class="st0" d="M57.5,12c-0.276,0-0.5-0.224-0.5-0.5v-4C57,7.224,57.224,7,57.5,7S58,7.224,58,7.5v4
			C58,11.776,57.776,12,57.5,12z"/>
	</g>
	<g>
		<path class="st0" d="M54.5,15h-4c-0.276,0-0.5-0.224-0.5-0.5s0.224-0.5,0.5-0.5h4c0.276,0,0.5,0.224,0.5,0.5S54.776,15,54.5,15z"
			/>
	</g>
	<g>
		<path class="st0" d="M52.5,17c-0.276,0-0.5-0.224-0.5-0.5v-4c0-0.276,0.224-0.5,0.5-0.5s0.5,0.224,0.5,0.5v4
			C53,16.776,52.776,17,52.5,17z"/>
	</g>
</g>
</svg>
