<?xml version="1.0" encoding="utf-8"?>
<!-- Generator: Adobe Illustrator 21.1.0, SVG Export Plug-In . SVG Version: 6.00 Build 0)  -->
<svg version="1.1" id="Icon_Set" xmlns="http://www.w3.org/2000/svg" xmlns:xlink="http://www.w3.org/1999/xlink" x="0px" y="0px"
	 viewBox="0 0 64 64" style="enable-background:new 0 0 64 64;" xml:space="preserve">
<style type="text/css">
	.st0{fill:#37474F;}
	.st1{fill:#EF5350;}
	.st2{fill:#FFCA28;}
	.st3{fill:#64B5F6;}
	.st4{fill:#FFFFFF;}
	.st5{fill:#FF7043;}
</style>
<g id="Online_Course">
	<g>
		<g>
			<path class="st3" d="M56,18.75l-20,0c-0.552,0-1,0.448-1,1v7.126c0.265,0.097,0.516,0.246,0.728,0.459
				c0.781,0.781,0.781,2.047,0,2.828L35,30.892v2.858c0,0.552,0.448,1,1,1h20c0.552,0,1-0.448,1-1v-14
				C57,19.198,56.552,18.75,56,18.75z"/>
		</g>
	</g>
	<g>
		<g>
			<path class="st0" d="M53,22.75H39c-0.276,0-0.5,0.224-0.5,0.5s0.224,0.5,0.5,0.5h14c0.276,0,0.5-0.224,0.5-0.5
				S53.276,22.75,53,22.75z"/>
		</g>
	</g>
	<g>
		<g>
			<path class="st0" d="M53,26.25H39c-0.276,0-0.5,0.224-0.5,0.5s0.224,0.5,0.5,0.5h14c0.276,0,0.5-0.224,0.5-0.5
				S53.276,26.25,53,26.25z"/>
		</g>
	</g>
	<g>
		<g>
			<path class="st0" d="M46,29.75h-7c-0.276,0-0.5,0.224-0.5,0.5s0.224,0.5,0.5,0.5h7c0.276,0,0.5-0.224,0.5-0.5
				S46.276,29.75,46,29.75z"/>
		</g>
	</g>
	<g>
		<g>
			<path class="st0" d="M26,52.25c-0.276,0-0.5,0.224-0.5,0.5v3.5c0,0.276,0.224,0.5,0.5,0.5s0.5-0.224,0.5-0.5v-3.5
				C26.5,52.474,26.276,52.25,26,52.25z"/>
		</g>
	</g>
	<g>
		<g>
			<path class="st0" d="M38,52.25c-0.276,0-0.5,0.224-0.5,0.5v3.5c0,0.276,0.224,0.5,0.5,0.5s0.5-0.224,0.5-0.5v-3.5
				C38.5,52.474,38.276,52.25,38,52.25z"/>
		</g>
	</g>
	<g>
		<g>
			<g>
				<g>
					<g>
						<path class="st0" d="M42,57.75H22c-0.827,0-1.5,0.673-1.5,1.5v2c0,0.827,0.673,1.5,1.5,1.5h20c0.827,0,1.5-0.673,1.5-1.5v-2
							C43.5,58.423,42.827,57.75,42,57.75z M42.5,61.25c0,0.276-0.224,0.5-0.5,0.5H22c-0.276,0-0.5-0.224-0.5-0.5v-2
							c0-0.276,0.224-0.5,0.5-0.5h20c0.276,0,0.5,0.224,0.5,0.5V61.25z"/>
					</g>
				</g>
			</g>
		</g>
	</g>
	<g>
		<g>
			<path class="st0" d="M62,45.25H2c-0.276,0-0.5,0.224-0.5,0.5s0.224,0.5,0.5,0.5h60c0.276,0,0.5-0.224,0.5-0.5
				S62.276,45.25,62,45.25z"/>
		</g>
	</g>
	<g>
		<g>
			<g>
				<g>
					<g>
						<path class="st0" d="M17,16.25c-3.584,0-6.5,2.916-6.5,6.5s2.916,6.5,6.5,6.5s6.5-2.916,6.5-6.5S20.584,16.25,17,16.25z
							 M17,28.25c-3.033,0-5.5-2.467-5.5-5.5s2.467-5.5,5.5-5.5s5.5,2.467,5.5,5.5S20.033,28.25,17,28.25z"/>
					</g>
				</g>
			</g>
		</g>
	</g>
	<g>
		<g>
			<g>
				<g>
					<g>
						<path class="st0" d="M36.082,26.982c-0.975-0.975-2.562-0.974-3.536,0l-1.414,1.414c-0.195,0.195-0.195,0.512,0,0.707
							l2.828,2.829c0.098,0.098,0.226,0.146,0.354,0.146s0.256-0.049,0.354-0.146l1.415-1.414
							C37.056,29.543,37.056,27.957,36.082,26.982z M35.375,29.811l-1.061,1.061l-2.121-2.122l1.061-1.061
							c0.584-0.583,1.536-0.584,2.122,0C35.959,28.274,35.959,29.226,35.375,29.811z"/>
					</g>
				</g>
			</g>
		</g>
	</g>
	<g>
		<g>
			<path class="st2" d="M23,43.75v-9.344l2.829,2.829c0.375,0.375,0.884,0.586,1.414,0.586s1.039-0.211,1.414-0.586l5.657-5.657
				l-2.828-2.828l-4.243,4.243l-2.696-2.696c-0.99-0.99-2.333-1.546-3.734-1.546H20.5l-3.5,4l-3.5-4h-1.22
				C9.364,28.75,7,31.114,7,34.03v9.72"/>
		</g>
	</g>
	<g>
		<g>
			<path class="st0" d="M34.667,31.225l-2.828-2.828c-0.195-0.195-0.512-0.195-0.707,0l-3.889,3.889L24.9,29.943
				c-1.092-1.092-2.543-1.693-4.087-1.693H20.5c-0.144,0-0.281,0.062-0.376,0.171L17,31.991l-3.124-3.57
				c-0.095-0.109-0.232-0.171-0.376-0.171h-1.22c-3.188,0-5.78,2.593-5.78,5.78v9.72c0,0.276,0.224,0.5,0.5,0.5s0.5-0.224,0.5-0.5
				v-9.72c0-2.636,2.145-4.78,4.78-4.78h0.993l3.351,3.829c0.19,0.218,0.562,0.218,0.753,0l3.351-3.829h0.086
				c1.277,0,2.477,0.497,3.38,1.4l2.696,2.696c0.195,0.195,0.512,0.195,0.707,0l3.889-3.889l2.121,2.121l-5.303,5.304
				c-0.559,0.559-1.562,0.559-2.121,0l-2.829-2.83c-0.143-0.143-0.356-0.186-0.545-0.108c-0.187,0.077-0.309,0.26-0.309,0.462v9.344
				c0,0.276,0.224,0.5,0.5,0.5s0.5-0.224,0.5-0.5v-8.137l1.976,1.976c0.944,0.944,2.591,0.944,3.535,0l5.657-5.657
				C34.863,31.736,34.863,31.42,34.667,31.225z"/>
		</g>
	</g>
	<g>
		<g>
			<path class="st0" d="M17,32.25c-0.276,0-0.5,0.224-0.5,0.5v5c0,0.276,0.224,0.5,0.5,0.5s0.5-0.224,0.5-0.5v-5
				C17.5,32.474,17.276,32.25,17,32.25z"/>
		</g>
	</g>
	<g>
		<g>
			<path class="st0" d="M11,33.75c-0.276,0-0.5,0.224-0.5,0.5v9.5c0,0.276,0.224,0.5,0.5,0.5s0.5-0.224,0.5-0.5v-9.5
				C11.5,33.974,11.276,33.75,11,33.75z"/>
		</g>
	</g>
	<g>
		<g>
			<path class="st0" d="M57,8.25h-2c-0.276,0-0.5,0.224-0.5,0.5s0.224,0.5,0.5,0.5h2c2.481,0,4.5,2.019,4.5,4.5v32
				c0,2.481-2.019,4.5-4.5,4.5H7c-2.481,0-4.5-2.019-4.5-4.5v-20c0-0.276-0.224-0.5-0.5-0.5s-0.5,0.224-0.5,0.5v20
				c0,3.033,2.467,5.5,5.5,5.5h50c3.033,0,5.5-2.467,5.5-5.5v-32C62.5,10.717,60.033,8.25,57,8.25z"/>
		</g>
	</g>
	<g>
		<g>
			<path class="st0" d="M2,19.25c-0.276,0-0.5,0.224-0.5,0.5v3c0,0.276,0.224,0.5,0.5,0.5s0.5-0.224,0.5-0.5v-3
				C2.5,19.474,2.276,19.25,2,19.25z"/>
		</g>
	</g>
	<g>
		<g>
			<path class="st0" d="M37,8.25H7c-3.033,0-5.5,2.467-5.5,5.5v3c0,0.276,0.224,0.5,0.5,0.5s0.5-0.224,0.5-0.5v-3
				c0-2.481,2.019-4.5,4.5-4.5h30c0.276,0,0.5-0.224,0.5-0.5S37.276,8.25,37,8.25z"/>
		</g>
	</g>
	<g>
		<g>
			<circle class="st1" cx="46" cy="8.75" r="7"/>
		</g>
	</g>
	<g>
		<g>
			<g>
				<g>
					<path class="st0" d="M46,1.25c-4.136,0-7.5,3.364-7.5,7.5s3.364,7.5,7.5,7.5s7.5-3.364,7.5-7.5S50.136,1.25,46,1.25z M46,15.25
						c-3.584,0-6.5-2.916-6.5-6.5s2.916-6.5,6.5-6.5s6.5,2.916,6.5,6.5S49.584,15.25,46,15.25z"/>
				</g>
			</g>
		</g>
	</g>
	<g>
		<g>
			<path class="st0" d="M62,13.25h-8.518c-0.276,0-0.5,0.224-0.5,0.5s0.224,0.5,0.5,0.5H62c0.276,0,0.5-0.224,0.5-0.5
				S62.276,13.25,62,13.25z"/>
		</g>
	</g>
	<g>
		<g>
			<path class="st0" d="M38.518,13.25H2c-0.276,0-0.5,0.224-0.5,0.5s0.224,0.5,0.5,0.5h36.518c0.276,0,0.5-0.224,0.5-0.5
				S38.794,13.25,38.518,13.25z"/>
		</g>
	</g>
	<g>
		<g>
			<path class="st4" d="M48.588,7.898l-3.592-2.21c-0.666-0.41-1.524,0.069-1.524,0.852v4.421c0,0.782,0.858,1.262,1.524,0.852
				l3.592-2.21C49.222,9.211,49.222,8.289,48.588,7.898z"/>
		</g>
	</g>
	<g>
		<g>
			<g>
				<g>
					<path class="st0" d="M48.85,7.473l-3.592-2.21c-0.47-0.29-1.038-0.301-1.518-0.032c-0.481,0.269-0.769,0.758-0.769,1.31v4.421
						c0,0.551,0.287,1.041,0.769,1.31c0.231,0.129,0.482,0.193,0.732,0.193c0.271,0,0.542-0.075,0.786-0.226l3.592-2.21
						c0.447-0.275,0.713-0.753,0.713-1.277S49.297,7.748,48.85,7.473z M48.326,9.176l-3.592,2.21
						c-0.225,0.139-0.429,0.054-0.506,0.011c-0.077-0.043-0.256-0.172-0.256-0.437V6.54c0-0.265,0.179-0.394,0.256-0.437
						c0.045-0.025,0.135-0.065,0.247-0.065c0.078,0,0.167,0.02,0.259,0.076l3.592,2.21c0.215,0.132,0.238,0.342,0.238,0.426
						S48.541,9.043,48.326,9.176z"/>
				</g>
			</g>
		</g>
	</g>
	<g>
		<g>
			<path class="st0" d="M56,18.25H36c-0.827,0-1.5,0.673-1.5,1.5v5.067c0,0.276,0.224,0.5,0.5,0.5s0.5-0.224,0.5-0.5V19.75
				c0-0.276,0.224-0.5,0.5-0.5h20c0.276,0,0.5,0.224,0.5,0.5v14c0,0.276-0.224,0.5-0.5,0.5H36c-0.276,0-0.5-0.224-0.5-0.5v-0.299
				c0-0.276-0.224-0.5-0.5-0.5s-0.5,0.224-0.5,0.5v0.299c0,0.827,0.673,1.5,1.5,1.5h20c0.827,0,1.5-0.673,1.5-1.5v-14
				C57.5,18.923,56.827,18.25,56,18.25z"/>
		</g>
	</g>
</g>
</svg>
