<?xml version="1.0" encoding="utf-8"?>
<!-- Generator: Adobe Illustrator 22.0.0, SVG Export Plug-In . SVG Version: 6.00 Build 0)  -->
<svg version="1.1" id="Icon_Set" xmlns="http://www.w3.org/2000/svg" xmlns:xlink="http://www.w3.org/1999/xlink" x="0px" y="0px"
	 viewBox="0 0 64 64" style="enable-background:new 0 0 64 64;" xml:space="preserve">
<style type="text/css">
	.st0{fill:#263238;}
	.st1{fill:#FFD740;}
	.st2{fill:#FF5252;}
	.st3{fill:#40C4FF;}
	.st4{fill:#FFFFFF;}
	.st5{fill:#4DB6AC;}
	.st6{fill:#4FC3F7;}
</style>
<g>
	<g>
		<path class="st0" d="M32,34.5c-5.243,0-9.745-3.475-11.095-8.502c-0.613-0.02-1.202-0.229-1.707-0.61
			C19.073,25.293,19,25.146,19,24.988v-3.977c0-0.157,0.073-0.305,0.198-0.399c0.505-0.381,1.094-0.591,1.707-0.61
			C22.255,14.975,26.757,11.5,32,11.5s9.746,3.475,11.096,8.502c0.614,0.02,1.202,0.229,1.706,0.609
			C44.927,20.706,45,20.854,45,21.011v3.979c0,0.157-0.073,0.305-0.198,0.399c-0.504,0.38-1.092,0.59-1.706,0.609
			C41.746,31.025,37.243,34.5,32,34.5z M21.223,24.979c0.24,0,0.501,0.15,0.554,0.379C22.879,30.152,27.083,33.5,32,33.5
			c4.918,0,9.122-3.348,10.225-8.142c0.058-0.249,0.288-0.421,0.548-0.384C42.901,24.992,42.949,25,43,25
			c0.352,0,0.693-0.095,1-0.276v-3.447c-0.351-0.208-0.759-0.314-1.147-0.262c-0.257,0.037-0.569-0.12-0.628-0.373
			C41.122,15.848,36.918,12.5,32,12.5c-4.917,0-9.121,3.348-10.224,8.142c-0.057,0.249-0.282,0.421-0.548,0.384
			C21.1,21.008,21.051,21,21,21c-0.351,0-0.692,0.096-1,0.277v3.445c0.352,0.208,0.755,0.314,1.149,0.263
			C21.173,24.981,21.198,24.979,21.223,24.979z"/>
	</g>
	<g>
		<path class="st0" d="M34.5,37.5H32c-0.276,0-0.5-0.224-0.5-0.5s0.224-0.5,0.5-0.5h2.5c5.238,0,9.5-4.262,9.5-9.5
			c0-0.276,0.224-0.5,0.5-0.5S45,26.724,45,27C45,32.79,40.29,37.5,34.5,37.5z"/>
	</g>
	<g>
		<path class="st0" d="M14,59.5c-0.276,0-0.5-0.224-0.5-0.5V45.945c0-3.205,1.903-6.091,4.849-7.354l9.454-4.052
			c0.252-0.106,0.547,0.008,0.657,0.263c0.108,0.254-0.009,0.548-0.263,0.657l-9.454,4.052c-2.578,1.104-4.243,3.63-4.243,6.434V59
			C14.5,59.276,14.276,59.5,14,59.5z"/>
	</g>
	<g>
		<path class="st0" d="M50,59.5c-0.276,0-0.5-0.224-0.5-0.5V45.945c0-2.804-1.665-5.33-4.243-6.434l-4.506-1.931
			c-0.254-0.109-0.371-0.403-0.263-0.657c0.11-0.255,0.405-0.371,0.657-0.263l4.506,1.931c2.945,1.263,4.849,4.148,4.849,7.354V59
			C50.5,59.276,50.276,59.5,50,59.5z"/>
	</g>
	<g>
		<path class="st0" d="M32,41.5c-0.167,0-0.323-0.084-0.416-0.223l-4-6C27.529,35.195,27.5,35.099,27.5,35v-1.761
			c0-0.165,0.082-0.32,0.219-0.413c0.136-0.093,0.312-0.111,0.464-0.053c2.457,0.965,5.178,0.965,7.635,0
			c0.152-0.059,0.328-0.04,0.464,0.053c0.137,0.093,0.219,0.248,0.219,0.413V35c0,0.276-0.224,0.5-0.5,0.5s-0.5-0.224-0.5-0.5
			v-1.052c-2.271,0.732-4.729,0.732-7,0v0.9l3.5,5.25l0.917-1.376c0.154-0.23,0.465-0.291,0.693-0.139
			c0.229,0.153,0.292,0.464,0.139,0.693l-1.333,2C32.323,41.416,32.167,41.5,32,41.5z"/>
	</g>
	<g>
		<path class="st0" d="M18,34.214H9c-0.276,0-0.5-0.224-0.5-0.5s0.224-0.5,0.5-0.5h9c0.276,0,0.5,0.224,0.5,0.5
			S18.276,34.214,18,34.214z"/>
	</g>
	<g>
		<path class="st0" d="M7,34.214H5c-0.276,0-0.5-0.224-0.5-0.5s0.224-0.5,0.5-0.5h2c0.276,0,0.5,0.224,0.5,0.5
			S7.276,34.214,7,34.214z"/>
	</g>
	<g>
		<path class="st0" d="M55,34.214h-9c-0.276,0-0.5-0.224-0.5-0.5s0.224-0.5,0.5-0.5h9c0.276,0,0.5,0.224,0.5,0.5
			S55.276,34.214,55,34.214z"/>
	</g>
	<g>
		<path class="st0" d="M59,34.214h-2c-0.276,0-0.5-0.224-0.5-0.5s0.224-0.5,0.5-0.5h2c0.276,0,0.5,0.224,0.5,0.5
			S59.276,34.214,59,34.214z"/>
	</g>
	<g>
		<path class="st0" d="M15.5,10h-4C11.224,10,11,9.776,11,9.5S11.224,9,11.5,9h4C15.776,9,16,9.224,16,9.5S15.776,10,15.5,10z"/>
	</g>
	<g>
		<path class="st0" d="M13.5,12c-0.276,0-0.5-0.224-0.5-0.5v-4C13,7.224,13.224,7,13.5,7S14,7.224,14,7.5v4
			C14,11.776,13.776,12,13.5,12z"/>
	</g>
	<g>
		<path class="st0" d="M11.5,15h-4C7.224,15,7,14.776,7,14.5S7.224,14,7.5,14h4c0.276,0,0.5,0.224,0.5,0.5S11.776,15,11.5,15z"/>
	</g>
	<g>
		<path class="st0" d="M9.5,17C9.224,17,9,16.776,9,16.5v-4C9,12.224,9.224,12,9.5,12s0.5,0.224,0.5,0.5v4
			C10,16.776,9.776,17,9.5,17z"/>
	</g>
	<g>
		<path class="st1" d="M22,22h-0.5v-6.5h3v4C24.5,20.881,23.381,22,22,22z"/>
		<path class="st0" d="M22,22.5h-0.5c-0.276,0-0.5-0.224-0.5-0.5v-6.5c0-0.276,0.224-0.5,0.5-0.5h3c0.276,0,0.5,0.224,0.5,0.5v4
			C25,21.154,23.654,22.5,22,22.5z M22,21.5h0.01H22z M22,16v5.5c1.103,0,2-0.897,2-2V16H22z"/>
	</g>
	<g>
		<path class="st1" d="M39.5,15.45v4.05c0,1.381,1.119,2.5,2.5,2.5h0.5v-7.935C41.712,14.839,40.662,15.333,39.5,15.45z"/>
		<path class="st0" d="M42.5,22.5H42c-1.654,0-3-1.346-3-3v-4.051c0-0.257,0.194-0.472,0.45-0.497
			c1.03-0.104,1.989-0.546,2.699-1.244c0.145-0.141,0.359-0.182,0.544-0.104C42.879,13.682,43,13.863,43,14.064V22
			C43,22.276,42.776,22.5,42.5,22.5z M40,15.883V19.5c0,1.103,0.897,2,2,2v-6.401C41.399,15.483,40.718,15.752,40,15.883z"/>
	</g>
	<g>
		<path class="st0" d="M32.001,28.497c-1.409,0-2.817-0.536-3.89-1.608c-0.195-0.195-0.195-0.512,0-0.707s0.512-0.195,0.707,0
			c1.753,1.753,4.609,1.754,6.364,0c0.195-0.195,0.512-0.195,0.707,0s0.195,0.512,0,0.707
			C34.817,27.961,33.409,28.497,32.001,28.497z"/>
	</g>
	<g>
		<path class="st1" d="M39,15.5H21.5v0c0-4.142,3.358-7.5,7.5-7.5h5.205c2.171,0,4.315-0.471,6.286-1.381L44,5v5.5
			C44,13.261,41.762,15.5,39,15.5z"/>
		<path class="st0" d="M39,16H21.5c-0.276,0-0.5-0.224-0.5-0.5c0-4.411,3.589-8,8-8h5.206c2.085,0,4.186-0.462,6.076-1.335
			l3.508-1.619c0.155-0.07,0.336-0.06,0.479,0.033C44.413,4.671,44.5,4.829,44.5,5v5.5C44.5,13.532,42.032,16,39,16z M22.018,15H39
			c2.481,0,4.5-2.019,4.5-4.5V5.781l-2.798,1.292C38.681,8.007,36.435,8.5,34.206,8.5H29C25.309,8.5,22.275,11.373,22.018,15z"/>
	</g>
	<g>
		<path class="st0" d="M44.5,19.5c-0.276,0-0.5-0.224-0.5-0.5v-3.073c0-0.34-0.014-0.676-0.041-1.008
			c-0.022-0.275,0.182-0.517,0.457-0.539c0.269-0.018,0.517,0.183,0.539,0.457C44.984,15.196,45,15.56,45,15.927V19
			C45,19.276,44.776,19.5,44.5,19.5z"/>
	</g>
	<g>
		<path class="st5" d="M44.5,19H46c1.381,0,2.5,1.119,2.5,2.5v3c0,1.381-1.119,2.5-2.5,2.5h-1.5V19z"/>
		<path class="st0" d="M46,27.5h-1.5c-0.276,0-0.5-0.224-0.5-0.5v-8c0-0.276,0.224-0.5,0.5-0.5H46c1.654,0,3,1.346,3,3v3
			C49,26.154,47.654,27.5,46,27.5z M45,26.5h1c1.103,0,2-0.897,2-2v-3c0-1.103-0.897-2-2-2h-1V26.5z"/>
	</g>
	<g>
		<path class="st5" d="M19.5,27H18c-1.381,0-2.5-1.119-2.5-2.5v-3c0-1.381,1.119-2.5,2.5-2.5h1.5V27z"/>
		<path class="st0" d="M19.5,27.5H18c-1.654,0-3-1.346-3-3v-3c0-1.654,1.346-3,3-3h1.5c0.276,0,0.5,0.224,0.5,0.5v8
			C20,27.276,19.776,27.5,19.5,27.5z M18,19.5c-1.103,0-2,0.897-2,2v3c0,1.103,0.897,2,2,2h1v-7H18z"/>
	</g>
	<g>
		<path class="st0" d="M44.5,19.5c-0.276,0-0.5-0.224-0.5-0.5v-3.5c0-0.133-0.009-0.264-0.018-0.395l-0.014-0.222
			c-0.015-0.276,0.198-0.511,0.474-0.524c0.009-0.001,0.018-0.001,0.025-0.001c0.265,0,0.486,0.208,0.499,0.475l0.013,0.205
			C44.99,15.191,45,15.344,45,15.5V19C45,19.276,44.776,19.5,44.5,19.5z"/>
	</g>
	<g>
		<path class="st0" d="M19.5,19.5c-0.276,0-0.5-0.224-0.5-0.5v-3.5c0-7.168,5.832-13,13-13c2.572,0,5.062,0.753,7.199,2.178
			c0.229,0.153,0.292,0.464,0.139,0.693c-0.154,0.229-0.465,0.29-0.693,0.139C36.672,4.195,34.374,3.5,32,3.5
			c-6.617,0-12,5.383-12,12V19C20,19.276,19.776,19.5,19.5,19.5z"/>
	</g>
	<g>
		<circle class="st5" cx="32" cy="51" r="10"/>
		<path class="st0" d="M32,61.5c-5.79,0-10.5-4.71-10.5-10.5S26.21,40.5,32,40.5S42.5,45.21,42.5,51S37.79,61.5,32,61.5z M32,41.5
			c-5.238,0-9.5,4.262-9.5,9.5s4.262,9.5,9.5,9.5s9.5-4.262,9.5-9.5S37.238,41.5,32,41.5z"/>
	</g>
	<g>
		<path class="st0" d="M32,53.5c-0.276,0-0.5-0.224-0.5-0.5v-1.5c0-0.276,0.224-0.5,0.5-0.5c1.379,0,2.5-1.121,2.5-2.5
			S33.379,46,32,46s-2.5,1.121-2.5,2.5c0,0.276-0.224,0.5-0.5,0.5s-0.5-0.224-0.5-0.5c0-1.93,1.57-3.5,3.5-3.5s3.5,1.57,3.5,3.5
			c0,1.76-1.306,3.221-3,3.465V53C32.5,53.276,32.276,53.5,32,53.5z"/>
	</g>
	<g>
		<circle class="st0" cx="32" cy="55.75" r="0.75"/>
	</g>
</g>
</svg>
