<?xml version="1.0" encoding="utf-8"?>
<!-- Generator: Adobe Illustrator 22.0.0, SVG Export Plug-In . SVG Version: 6.00 Build 0)  -->
<svg version="1.1" id="Icon_Set" xmlns="http://www.w3.org/2000/svg" xmlns:xlink="http://www.w3.org/1999/xlink" x="0px" y="0px"
	 viewBox="0 0 64 64" style="enable-background:new 0 0 64 64;" xml:space="preserve">
<style type="text/css">
	.st0{fill:#40C4FF;}
	.st1{fill:#263238;}
	.st2{fill:#FFD740;}
	.st3{fill:#FF5252;}
	.st4{fill:#4DB6AC;}
	.st5{fill:#FFFFFF;}
	.st6{fill:#4FC3F7;}
	.st7{fill:#37474F;}
</style>
<g>
	<g>
		<path class="st0" d="M39,49.75H25v-4c0-0.552,0.448-1,1-1h12c0.552,0,1,0.448,1,1V49.75z"/>
		<path class="st1" d="M39,50.25H25c-0.276,0-0.5-0.224-0.5-0.5v-4c0-0.827,0.673-1.5,1.5-1.5h12c0.827,0,1.5,0.673,1.5,1.5v4
			C39.5,50.026,39.276,50.25,39,50.25z M25.5,49.25h13v-3.5c0-0.276-0.225-0.5-0.5-0.5H26c-0.275,0-0.5,0.224-0.5,0.5V49.25z"/>
	</g>
	<g>
		<path class="st1" d="M26,43.25c-0.128,0-0.256-0.049-0.354-0.146l-2.268-2.268c-0.566-0.567-0.879-1.321-0.879-2.122V35.25
			c0-1.103,0.897-2,2-2c0.364,0,0.706,0.098,1,0.269V27.25c0-1.103,0.897-2,2-2c0.369,0,0.716,0.101,1.013,0.276
			c0.111-0.998,0.96-1.776,1.987-1.776c0.871,0,1.614,0.56,1.888,1.338c0.318-0.213,0.701-0.338,1.112-0.338
			c0.871,0,1.614,0.56,1.888,1.338c0.318-0.213,0.701-0.338,1.112-0.338c1.103,0,2,0.897,2,2v15c0,0.276-0.224,0.5-0.5,0.5
			s-0.5-0.224-0.5-0.5v-15c0-0.551-0.448-1-1-1s-1,0.449-1,1c0,0.276-0.224,0.5-0.5,0.5s-0.5-0.224-0.5-0.5v-1c0-0.551-0.448-1-1-1
			s-1,0.449-1,1c0,0.276-0.224,0.5-0.5,0.5s-0.5-0.224-0.5-0.5v-1c0-0.551-0.448-1-1-1s-1,0.449-1,1v1.5c0,0.276-0.224,0.5-0.5,0.5
			s-0.5-0.224-0.5-0.5c0-0.551-0.448-1-1-1s-1,0.449-1,1v8c0,0.276-0.224,0.5-0.5,0.5s-0.5-0.224-0.5-0.5c0-0.551-0.448-1-1-1
			s-1,0.449-1,1v3.464c0,0.534,0.208,1.036,0.586,1.415l2.268,2.268c0.195,0.195,0.195,0.512,0,0.707
			C26.256,43.201,26.128,43.25,26,43.25z"/>
	</g>
	<g>
		<path class="st1" d="M39,63.25c-0.276,0-0.5-0.224-0.5-0.5v-12.5h-13v12.5c0,0.276-0.224,0.5-0.5,0.5s-0.5-0.224-0.5-0.5v-13
			c0-0.276,0.224-0.5,0.5-0.5h14c0.276,0,0.5,0.224,0.5,0.5v13C39.5,63.026,39.276,63.25,39,63.25z"/>
	</g>
	<g>
		<path class="st1" d="M29,32.75c-0.276,0-0.5-0.224-0.5-0.5v-5c0-0.276,0.224-0.5,0.5-0.5s0.5,0.224,0.5,0.5v5
			C29.5,32.526,29.276,32.75,29,32.75z"/>
	</g>
	<g>
		<path class="st1" d="M32,32.75c-0.276,0-0.5-0.224-0.5-0.5v-5.5c0-0.276,0.224-0.5,0.5-0.5s0.5,0.224,0.5,0.5v5.5
			C32.5,32.526,32.276,32.75,32,32.75z"/>
	</g>
	<g>
		<path class="st1" d="M35,32.75c-0.276,0-0.5-0.224-0.5-0.5v-4.5c0-0.276,0.224-0.5,0.5-0.5s0.5,0.224,0.5,0.5v4.5
			C35.5,32.526,35.276,32.75,35,32.75z"/>
	</g>
	<g>
		<path class="st2" d="M25,14.25h14v4c0,0.552-0.448,1-1,1H26c-0.552,0-1-0.448-1-1V14.25z"/>
		<path class="st1" d="M38,19.75H26c-0.827,0-1.5-0.673-1.5-1.5v-4c0-0.276,0.224-0.5,0.5-0.5h14c0.276,0,0.5,0.224,0.5,0.5v4
			C39.5,19.077,38.827,19.75,38,19.75z M25.5,14.75v3.5c0,0.276,0.225,0.5,0.5,0.5h12c0.275,0,0.5-0.224,0.5-0.5v-3.5H25.5z"/>
	</g>
	<g>
		<path class="st1" d="M40,30.658c-0.206,0-0.398-0.128-0.471-0.333c-0.093-0.26,0.043-0.546,0.304-0.639
			c0.398-0.142,0.667-0.519,0.667-0.937v-3.464c0-0.526-0.214-1.042-0.586-1.415l-2.268-2.268c-0.195-0.195-0.195-0.512,0-0.707
			s0.512-0.195,0.707,0l2.268,2.268c0.559,0.559,0.879,1.332,0.879,2.122v3.464c0,0.841-0.535,1.596-1.333,1.879
			C40.112,30.649,40.056,30.658,40,30.658z"/>
	</g>
	<g>
		<path class="st1" d="M39,14.75H25c-0.276,0-0.5-0.224-0.5-0.5v-13c0-0.276,0.224-0.5,0.5-0.5s0.5,0.224,0.5,0.5v12.5h13V1.25
			c0-0.276,0.224-0.5,0.5-0.5s0.5,0.224,0.5,0.5v13C39.5,14.526,39.276,14.75,39,14.75z"/>
	</g>
	<g>
		<path class="st3" d="M14.25,39V25h4c0.552,0,1,0.448,1,1v12c0,0.552-0.448,1-1,1H14.25z"/>
		<path class="st1" d="M18.25,39.5h-4c-0.276,0-0.5-0.224-0.5-0.5V25c0-0.276,0.224-0.5,0.5-0.5h4c0.827,0,1.5,0.673,1.5,1.5v12
			C19.75,38.827,19.077,39.5,18.25,39.5z M14.75,38.5h3.5c0.275,0,0.5-0.224,0.5-0.5V26c0-0.276-0.225-0.5-0.5-0.5h-3.5V38.5z"/>
	</g>
	<g>
		<path class="st1" d="M21.25,26.5c-0.128,0-0.256-0.049-0.354-0.146c-0.195-0.195-0.195-0.512,0-0.707l2.268-2.268
			c0.566-0.566,1.319-0.878,2.121-0.878h3.085c0.276,0,0.5,0.224,0.5,0.5s-0.224,0.5-0.5,0.5h-3.085
			c-0.534,0-1.036,0.208-1.414,0.585l-2.268,2.268C21.506,26.451,21.378,26.5,21.25,26.5z"/>
	</g>
	<g>
		<path class="st1" d="M14.25,39.5h-13c-0.276,0-0.5-0.224-0.5-0.5s0.224-0.5,0.5-0.5h12.5v-13H1.25c-0.276,0-0.5-0.224-0.5-0.5
			s0.224-0.5,0.5-0.5h13c0.276,0,0.5,0.224,0.5,0.5v14C14.75,39.276,14.526,39.5,14.25,39.5z"/>
	</g>
	<g>
		<path class="st4" d="M49.75,25v14h-4c-0.552,0-1-0.448-1-1V26c0-0.552,0.448-1,1-1H49.75z"/>
		<path class="st1" d="M49.75,39.5h-4c-0.827,0-1.5-0.673-1.5-1.5V26c0-0.827,0.673-1.5,1.5-1.5h4c0.276,0,0.5,0.224,0.5,0.5v14
			C50.25,39.276,50.026,39.5,49.75,39.5z M45.75,25.5c-0.275,0-0.5,0.224-0.5,0.5v12c0,0.276,0.225,0.5,0.5,0.5h3.5v-13H45.75z"/>
	</g>
	<g>
		<path class="st1" d="M40.001,41.144c-0.169,0-0.335-0.086-0.429-0.242c-0.143-0.237-0.065-0.544,0.171-0.687
			c0.142-0.085,0.271-0.186,0.385-0.3l2.269-2.268c0.195-0.195,0.512-0.195,0.707,0s0.195,0.512,0,0.707l-2.268,2.268
			c-0.171,0.172-0.365,0.324-0.577,0.451C40.178,41.121,40.089,41.144,40.001,41.144z"/>
	</g>
	<g>
		<path class="st1" d="M62.75,39.5h-13c-0.276,0-0.5-0.224-0.5-0.5V25c0-0.276,0.224-0.5,0.5-0.5h13c0.276,0,0.5,0.224,0.5,0.5
			s-0.224,0.5-0.5,0.5h-12.5v13h12.5c0.276,0,0.5,0.224,0.5,0.5S63.026,39.5,62.75,39.5z"/>
	</g>
	<g>
		<path class="st1" d="M8.75,19.75h-1c-0.276,0-0.5-0.224-0.5-0.5s0.224-0.5,0.5-0.5h1c0.276,0,0.5,0.224,0.5,0.5
			S9.026,19.75,8.75,19.75z"/>
	</g>
	<g>
		<path class="st1" d="M19.25,19.75h-8.5c-0.276,0-0.5-0.224-0.5-0.5s0.224-0.5,0.5-0.5h8.5c0.276,0,0.5,0.224,0.5,0.5
			S19.526,19.75,19.25,19.75z"/>
	</g>
	<g>
		<path class="st1" d="M56.25,45.25h-1c-0.276,0-0.5-0.224-0.5-0.5s0.224-0.5,0.5-0.5h1c0.276,0,0.5,0.224,0.5,0.5
			S56.526,45.25,56.25,45.25z"/>
	</g>
	<g>
		<path class="st1" d="M53.25,45.25h-8.5c-0.276,0-0.5-0.224-0.5-0.5s0.224-0.5,0.5-0.5h8.5c0.276,0,0.5,0.224,0.5,0.5
			S53.526,45.25,53.25,45.25z"/>
	</g>
	<g>
		<path class="st1" d="M57.75,8.75h-4c-0.276,0-0.5-0.224-0.5-0.5s0.224-0.5,0.5-0.5h4c0.276,0,0.5,0.224,0.5,0.5
			S58.026,8.75,57.75,8.75z"/>
	</g>
	<g>
		<path class="st1" d="M55.75,10.75c-0.276,0-0.5-0.224-0.5-0.5v-4c0-0.276,0.224-0.5,0.5-0.5s0.5,0.224,0.5,0.5v4
			C56.25,10.526,56.026,10.75,55.75,10.75z"/>
	</g>
	<g>
		<path class="st1" d="M51.75,14.75h-4c-0.276,0-0.5-0.224-0.5-0.5s0.224-0.5,0.5-0.5h4c0.276,0,0.5,0.224,0.5,0.5
			S52.026,14.75,51.75,14.75z"/>
	</g>
	<g>
		<path class="st1" d="M49.75,16.75c-0.276,0-0.5-0.224-0.5-0.5v-4c0-0.276,0.224-0.5,0.5-0.5s0.5,0.224,0.5,0.5v4
			C50.25,16.526,50.026,16.75,49.75,16.75z"/>
	</g>
</g>
</svg>
